<svg xmlns="http://www.w3.org/2000/svg" width="512" height="512" viewBox="0 0 23 23" shape-rendering="crispEdges">
<defs><clipPath id="circleClip"><circle cx="11.5" cy="11.5" r="11.5"></circle></clipPath></defs>
<circle cx="11.5" cy="11.5" r="11.5" fill="#bfe6fb"></circle>
<g clip-path="url(#circleClip)">
<rect x="3" y="5" width="1.02" height="1.02" fill="#ffffff" opacity="0.7"></rect>
<rect x="4" y="5" width="1.02" height="1.02" fill="#ffffff" opacity="0.7"></rect>
<rect x="2" y="6" width="1.02" height="1.02" fill="#ffffff" opacity="0.7"></rect>
<rect x="3" y="6" width="1.02" height="1.02" fill="#ffffff" opacity="0.7"></rect>
<rect x="4" y="6" width="1.02" height="1.02" fill="#ffffff" opacity="0.7"></rect>
<rect x="5" y="6" width="1.02" height="1.02" fill="#ffffff" opacity="0.7"></rect>
<rect x="17" y="7" width="1.02" height="1.02" fill="#ffffff" opacity="0.7"></rect>
<rect x="18" y="7" width="1.02" height="1.02" fill="#ffffff" opacity="0.7"></rect>
<rect x="19" y="7" width="1.02" height="1.02" fill="#ffffff" opacity="0.7"></rect>
<rect x="18" y="8" width="1.02" height="1.02" fill="#ffffff" opacity="0.7"></rect>
<rect x="19" y="8" width="1.02" height="1.02" fill="#ffffff" opacity="0.7"></rect>
<rect x="20" y="8" width="1.02" height="1.02" fill="#ffffff" opacity="0.7"></rect>
<rect x="0" y="16" width="1.02" height="1.02" fill="#6ec14a"></rect>
<rect x="1" y="16" width="1.02" height="1.02" fill="#6ec14a"></rect>
<rect x="2" y="16" width="1.02" height="1.02" fill="#6ec14a"></rect>
<rect x="3" y="16" width="1.02" height="1.02" fill="#6ec14a"></rect>
<rect x="4" y="16" width="1.02" height="1.02" fill="#6ec14a"></rect>
<rect x="5" y="16" width="1.02" height="1.02" fill="#6ec14a"></rect>
<rect x="6" y="16" width="1.02" height="1.02" fill="#6ec14a"></rect>
<rect x="7" y="16" width="1.02" height="1.02" fill="#6ec14a"></rect>
<rect x="8" y="16" width="1.02" height="1.02" fill="#6ec14a"></rect>
<rect x="9" y="16" width="1.02" height="1.02" fill="#6ec14a"></rect>
<rect x="10" y="16" width="1.02" height="1.02" fill="#6ec14a"></rect>
<rect x="11" y="16" width="1.02" height="1.02" fill="#6ec14a"></rect>
<rect x="12" y="16" width="1.02" height="1.02" fill="#6ec14a"></rect>
<rect x="13" y="16" width="1.02" height="1.02" fill="#6ec14a"></rect>
<rect x="14" y="16" width="1.02" height="1.02" fill="#6ec14a"></rect>
<rect x="15" y="16" width="1.02" height="1.02" fill="#6ec14a"></rect>
<rect x="16" y="16" width="1.02" height="1.02" fill="#6ec14a"></rect>
<rect x="17" y="16" width="1.02" height="1.02" fill="#6ec14a"></rect>
<rect x="18" y="16" width="1.02" height="1.02" fill="#6ec14a"></rect>
<rect x="19" y="16" width="1.02" height="1.02" fill="#6ec14a"></rect>
<rect x="20" y="16" width="1.02" height="1.02" fill="#6ec14a"></rect>
<rect x="21" y="16" width="1.02" height="1.02" fill="#6ec14a"></rect>
<rect x="22" y="16" width="1.02" height="1.02" fill="#6ec14a"></rect>
<rect x="0" y="17" width="1.02" height="1.02" fill="#6ec14a"></rect>
<rect x="1" y="17" width="1.02" height="1.02" fill="#6ec14a"></rect>
<rect x="2" y="17" width="1.02" height="1.02" fill="#6ec14a"></rect>
<rect x="3" y="17" width="1.02" height="1.02" fill="#6ec14a"></rect>
<rect x="4" y="17" width="1.02" height="1.02" fill="#6ec14a"></rect>
<rect x="5" y="17" width="1.02" height="1.02" fill="#6ec14a"></rect>
<rect x="6" y="17" width="1.02" height="1.02" fill="#6ec14a"></rect>
<rect x="7" y="17" width="1.02" height="1.02" fill="#6ec14a"></rect>
<rect x="8" y="17" width="1.02" height="1.02" fill="#6ec14a"></rect>
<rect x="9" y="17" width="1.02" height="1.02" fill="#6ec14a"></rect>
<rect x="10" y="17" width="1.02" height="1.02" fill="#6ec14a"></rect>
<rect x="11" y="17" width="1.02" height="1.02" fill="#6ec14a"></rect>
<rect x="12" y="17" width="1.02" height="1.02" fill="#6ec14a"></rect>
<rect x="13" y="17" width="1.02" height="1.02" fill="#6ec14a"></rect>
<rect x="14" y="17" width="1.02" height="1.02" fill="#6ec14a"></rect>
<rect x="15" y="17" width="1.02" height="1.02" fill="#6ec14a"></rect>
<rect x="16" y="17" width="1.02" height="1.02" fill="#6ec14a"></rect>
<rect x="17" y="17" width="1.02" height="1.02" fill="#6ec14a"></rect>
<rect x="18" y="17" width="1.02" height="1.02" fill="#6ec14a"></rect>
<rect x="19" y="17" width="1.02" height="1.02" fill="#6ec14a"></rect>
<rect x="20" y="17" width="1.02" height="1.02" fill="#6ec14a"></rect>
<rect x="21" y="17" width="1.02" height="1.02" fill="#6ec14a"></rect>
<rect x="22" y="17" width="1.02" height="1.02" fill="#6ec14a"></rect>
<rect x="0" y="18" width="1.02" height="1.02" fill="#4a9a34"></rect>
<rect x="1" y="18" width="1.02" height="1.02" fill="#4a9a34"></rect>
<rect x="2" y="18" width="1.02" height="1.02" fill="#4a9a34"></rect>
<rect x="3" y="18" width="1.02" height="1.02" fill="#4a9a34"></rect>
<rect x="4" y="18" width="1.02" height="1.02" fill="#4a9a34"></rect>
<rect x="5" y="18" width="1.02" height="1.02" fill="#4a9a34"></rect>
<rect x="6" y="18" width="1.02" height="1.02" fill="#4a9a34"></rect>
<rect x="7" y="18" width="1.02" height="1.02" fill="#4a9a34"></rect>
<rect x="8" y="18" width="1.02" height="1.02" fill="#4a9a34"></rect>
<rect x="9" y="18" width="1.02" height="1.02" fill="#4a9a34"></rect>
<rect x="10" y="18" width="1.02" height="1.02" fill="#4a9a34"></rect>
<rect x="11" y="18" width="1.02" height="1.02" fill="#4a9a34"></rect>
<rect x="12" y="18" width="1.02" height="1.02" fill="#4a9a34"></rect>
<rect x="13" y="18" width="1.02" height="1.02" fill="#4a9a34"></rect>
<rect x="14" y="18" width="1.02" height="1.02" fill="#4a9a34"></rect>
<rect x="15" y="18" width="1.02" height="1.02" fill="#4a9a34"></rect>
<rect x="16" y="18" width="1.02" height="1.02" fill="#4a9a34"></rect>
<rect x="17" y="18" width="1.02" height="1.02" fill="#4a9a34"></rect>
<rect x="18" y="18" width="1.02" height="1.02" fill="#4a9a34"></rect>
<rect x="19" y="18" width="1.02" height="1.02" fill="#4a9a34"></rect>
<rect x="20" y="18" width="1.02" height="1.02" fill="#4a9a34"></rect>
<rect x="21" y="18" width="1.02" height="1.02" fill="#4a9a34"></rect>
<rect x="22" y="18" width="1.02" height="1.02" fill="#4a9a34"></rect>
<rect x="0" y="19" width="1.02" height="1.02" fill="#4a9a34"></rect>
<rect x="1" y="19" width="1.02" height="1.02" fill="#4a9a34"></rect>
<rect x="2" y="19" width="1.02" height="1.02" fill="#4a9a34"></rect>
<rect x="3" y="19" width="1.02" height="1.02" fill="#4a9a34"></rect>
<rect x="4" y="19" width="1.02" height="1.02" fill="#4a9a34"></rect>
<rect x="5" y="19" width="1.02" height="1.02" fill="#4a9a34"></rect>
<rect x="6" y="19" width="1.02" height="1.02" fill="#4a9a34"></rect>
<rect x="7" y="19" width="1.02" height="1.02" fill="#4a9a34"></rect>
<rect x="8" y="19" width="1.02" height="1.02" fill="#4a9a34"></rect>
<rect x="9" y="19" width="1.02" height="1.02" fill="#4a9a34"></rect>
<rect x="10" y="19" width="1.02" height="1.02" fill="#4a9a34"></rect>
<rect x="11" y="19" width="1.02" height="1.02" fill="#4a9a34"></rect>
<rect x="12" y="19" width="1.02" height="1.02" fill="#4a9a34"></rect>
<rect x="13" y="19" width="1.02" height="1.02" fill="#4a9a34"></rect>
<rect x="14" y="19" width="1.02" height="1.02" fill="#4a9a34"></rect>
<rect x="15" y="19" width="1.02" height="1.02" fill="#4a9a34"></rect>
<rect x="16" y="19" width="1.02" height="1.02" fill="#4a9a34"></rect>
<rect x="17" y="19" width="1.02" height="1.02" fill="#4a9a34"></rect>
<rect x="18" y="19" width="1.02" height="1.02" fill="#4a9a34"></rect>
<rect x="19" y="19" width="1.02" height="1.02" fill="#4a9a34"></rect>
<rect x="20" y="19" width="1.02" height="1.02" fill="#4a9a34"></rect>
<rect x="21" y="19" width="1.02" height="1.02" fill="#4a9a34"></rect>
<rect x="22" y="19" width="1.02" height="1.02" fill="#4a9a34"></rect>
<rect x="0" y="20" width="1.02" height="1.02" fill="#4a9a34"></rect>
<rect x="1" y="20" width="1.02" height="1.02" fill="#4a9a34"></rect>
<rect x="2" y="20" width="1.02" height="1.02" fill="#4a9a34"></rect>
<rect x="3" y="20" width="1.02" height="1.02" fill="#4a9a34"></rect>
<rect x="4" y="20" width="1.02" height="1.02" fill="#4a9a34"></rect>
<rect x="5" y="20" width="1.02" height="1.02" fill="#4a9a34"></rect>
<rect x="6" y="20" width="1.02" height="1.02" fill="#4a9a34"></rect>
<rect x="7" y="20" width="1.02" height="1.02" fill="#4a9a34"></rect>
<rect x="8" y="20" width="1.02" height="1.02" fill="#4a9a34"></rect>
<rect x="9" y="20" width="1.02" height="1.02" fill="#4a9a34"></rect>
<rect x="10" y="20" width="1.02" height="1.02" fill="#4a9a34"></rect>
<rect x="11" y="20" width="1.02" height="1.02" fill="#4a9a34"></rect>
<rect x="12" y="20" width="1.02" height="1.02" fill="#4a9a34"></rect>
<rect x="13" y="20" width="1.02" height="1.02" fill="#4a9a34"></rect>
<rect x="14" y="20" width="1.02" height="1.02" fill="#4a9a34"></rect>
<rect x="15" y="20" width="1.02" height="1.02" fill="#4a9a34"></rect>
<rect x="16" y="20" width="1.02" height="1.02" fill="#4a9a34"></rect>
<rect x="17" y="20" width="1.02" height="1.02" fill="#4a9a34"></rect>
<rect x="18" y="20" width="1.02" height="1.02" fill="#4a9a34"></rect>
<rect x="19" y="20" width="1.02" height="1.02" fill="#4a9a34"></rect>
<rect x="20" y="20" width="1.02" height="1.02" fill="#4a9a34"></rect>
<rect x="21" y="20" width="1.02" height="1.02" fill="#4a9a34"></rect>
<rect x="22" y="20" width="1.02" height="1.02" fill="#4a9a34"></rect>
<rect x="0" y="21" width="1.02" height="1.02" fill="#4a9a34"></rect>
<rect x="1" y="21" width="1.02" height="1.02" fill="#4a9a34"></rect>
<rect x="2" y="21" width="1.02" height="1.02" fill="#4a9a34"></rect>
<rect x="3" y="21" width="1.02" height="1.02" fill="#4a9a34"></rect>
<rect x="4" y="21" width="1.02" height="1.02" fill="#4a9a34"></rect>
<rect x="5" y="21" width="1.02" height="1.02" fill="#4a9a34"></rect>
<rect x="6" y="21" width="1.02" height="1.02" fill="#4a9a34"></rect>
<rect x="7" y="21" width="1.02" height="1.02" fill="#4a9a34"></rect>
<rect x="8" y="21" width="1.02" height="1.02" fill="#4a9a34"></rect>
<rect x="9" y="21" width="1.02" height="1.02" fill="#4a9a34"></rect>
<rect x="10" y="21" width="1.02" height="1.02" fill="#4a9a34"></rect>
<rect x="11" y="21" width="1.02" height="1.02" fill="#4a9a34"></rect>
<rect x="12" y="21" width="1.02" height="1.02" fill="#4a9a34"></rect>
<rect x="13" y="21" width="1.02" height="1.02" fill="#4a9a34"></rect>
<rect x="14" y="21" width="1.02" height="1.02" fill="#4a9a34"></rect>
<rect x="15" y="21" width="1.02" height="1.02" fill="#4a9a34"></rect>
<rect x="16" y="21" width="1.02" height="1.02" fill="#4a9a34"></rect>
<rect x="17" y="21" width="1.02" height="1.02" fill="#4a9a34"></rect>
<rect x="18" y="21" width="1.02" height="1.02" fill="#4a9a34"></rect>
<rect x="19" y="21" width="1.02" height="1.02" fill="#4a9a34"></rect>
<rect x="20" y="21" width="1.02" height="1.02" fill="#4a9a34"></rect>
<rect x="21" y="21" width="1.02" height="1.02" fill="#4a9a34"></rect>
<rect x="22" y="21" width="1.02" height="1.02" fill="#4a9a34"></rect>
<rect x="0" y="22" width="1.02" height="1.02" fill="#4a9a34"></rect>
<rect x="1" y="22" width="1.02" height="1.02" fill="#4a9a34"></rect>
<rect x="2" y="22" width="1.02" height="1.02" fill="#4a9a34"></rect>
<rect x="3" y="22" width="1.02" height="1.02" fill="#4a9a34"></rect>
<rect x="4" y="22" width="1.02" height="1.02" fill="#4a9a34"></rect>
<rect x="5" y="22" width="1.02" height="1.02" fill="#4a9a34"></rect>
<rect x="6" y="22" width="1.02" height="1.02" fill="#4a9a34"></rect>
<rect x="7" y="22" width="1.02" height="1.02" fill="#4a9a34"></rect>
<rect x="8" y="22" width="1.02" height="1.02" fill="#4a9a34"></rect>
<rect x="9" y="22" width="1.02" height="1.02" fill="#4a9a34"></rect>
<rect x="10" y="22" width="1.02" height="1.02" fill="#4a9a34"></rect>
<rect x="11" y="22" width="1.02" height="1.02" fill="#4a9a34"></rect>
<rect x="12" y="22" width="1.02" height="1.02" fill="#4a9a34"></rect>
<rect x="13" y="22" width="1.02" height="1.02" fill="#4a9a34"></rect>
<rect x="14" y="22" width="1.02" height="1.02" fill="#4a9a34"></rect>
<rect x="15" y="22" width="1.02" height="1.02" fill="#4a9a34"></rect>
<rect x="16" y="22" width="1.02" height="1.02" fill="#4a9a34"></rect>
<rect x="17" y="22" width="1.02" height="1.02" fill="#4a9a34"></rect>
<rect x="18" y="22" width="1.02" height="1.02" fill="#4a9a34"></rect>
<rect x="19" y="22" width="1.02" height="1.02" fill="#4a9a34"></rect>
<rect x="20" y="22" width="1.02" height="1.02" fill="#4a9a34"></rect>
<rect x="21" y="22" width="1.02" height="1.02" fill="#4a9a34"></rect>
<rect x="22" y="22" width="1.02" height="1.02" fill="#4a9a34"></rect>
</g><g transform="translate(5,3)">
<rect x="6" y="0" width="1.02" height="1.02" fill="#a9adcf"></rect>
<rect x="5" y="1" width="1.02" height="1.02" fill="#5a5e86"></rect>
<rect x="6" y="1" width="1.02" height="1.02" fill="#a9adcf"></rect>
<rect x="7" y="1" width="1.02" height="1.02" fill="#5a5e86"></rect>
<rect x="5" y="2" width="1.02" height="1.02" fill="#5a5e86"></rect>
<rect x="6" y="2" width="1.02" height="1.02" fill="#7c81ab"></rect>
<rect x="7" y="2" width="1.02" height="1.02" fill="#5a5e86"></rect>
<rect x="4" y="3" width="1.02" height="1.02" fill="#5a5e86"></rect>
<rect x="5" y="3" width="1.02" height="1.02" fill="#7c81ab"></rect>
<rect x="7" y="3" width="1.02" height="1.02" fill="#7c81ab"></rect>
<rect x="8" y="3" width="1.02" height="1.02" fill="#5a5e86"></rect>
<rect x="4" y="4" width="1.02" height="1.02" fill="#5a5e86"></rect>
<rect x="5" y="4" width="1.02" height="1.02" fill="#7c81ab"></rect>
<rect x="6" y="4" width="1.02" height="1.02" fill="#7c81ab"></rect>
<rect x="7" y="4" width="1.02" height="1.02" fill="#7c81ab"></rect>
<rect x="8" y="4" width="1.02" height="1.02" fill="#5a5e86"></rect>
<rect x="3" y="5" width="1.02" height="1.02" fill="#5a5e86"></rect>
<rect x="4" y="5" width="1.02" height="1.02" fill="#7c81ab"></rect>
<rect x="5" y="5" width="1.02" height="1.02" fill="#7c81ab"></rect>
<rect x="6" y="5" width="1.02" height="1.02" fill="#a9adcf"></rect>
<rect x="7" y="5" width="1.02" height="1.02" fill="#7c81ab"></rect>
<rect x="8" y="5" width="1.02" height="1.02" fill="#7c81ab"></rect>
<rect x="9" y="5" width="1.02" height="1.02" fill="#5a5e86"></rect>
<rect x="3" y="6" width="1.02" height="1.02" fill="#5a5e86"></rect>
<rect x="4" y="6" width="1.02" height="1.02" fill="#7c81ab"></rect>
<rect x="5" y="6" width="1.02" height="1.02" fill="#7c81ab"></rect>
<rect x="6" y="6" width="1.02" height="1.02" fill="#a9adcf"></rect>
<rect x="7" y="6" width="1.02" height="1.02" fill="#7c81ab"></rect>
<rect x="8" y="6" width="1.02" height="1.02" fill="#7c81ab"></rect>
<rect x="9" y="6" width="1.02" height="1.02" fill="#5a5e86"></rect>
<rect x="2" y="7" width="1.02" height="1.02" fill="#5a5e86"></rect>
<rect x="3" y="7" width="1.02" height="1.02" fill="#7c81ab"></rect>
<rect x="4" y="7" width="1.02" height="1.02" fill="#7c81ab"></rect>
<rect x="5" y="7" width="1.02" height="1.02" fill="#7c81ab"></rect>
<rect x="6" y="7" width="1.02" height="1.02" fill="#a9adcf"></rect>
<rect x="7" y="7" width="1.02" height="1.02" fill="#7c81ab"></rect>
<rect x="8" y="7" width="1.02" height="1.02" fill="#7c81ab"></rect>
<rect x="9" y="7" width="1.02" height="1.02" fill="#7c81ab"></rect>
<rect x="10" y="7" width="1.02" height="1.02" fill="#5a5e86"></rect>
<rect x="1" y="8" width="1.02" height="1.02" fill="#5a5e86"></rect>
<rect x="2" y="8" width="1.02" height="1.02" fill="#7c81ab"></rect>
<rect x="3" y="8" width="1.02" height="1.02" fill="#7c81ab"></rect>
<rect x="4" y="8" width="1.02" height="1.02" fill="#7c81ab"></rect>
<rect x="5" y="8" width="1.02" height="1.02" fill="#7c81ab"></rect>
<rect x="6" y="8" width="1.02" height="1.02" fill="#a9adcf"></rect>
<rect x="7" y="8" width="1.02" height="1.02" fill="#7c81ab"></rect>
<rect x="8" y="8" width="1.02" height="1.02" fill="#7c81ab"></rect>
<rect x="9" y="8" width="1.02" height="1.02" fill="#7c81ab"></rect>
<rect x="10" y="8" width="1.02" height="1.02" fill="#7c81ab"></rect>
<rect x="11" y="8" width="1.02" height="1.02" fill="#5a5e86"></rect>
<rect x="1" y="9" width="1.02" height="1.02" fill="#5a5e86"></rect>
<rect x="2" y="9" width="1.02" height="1.02" fill="#7c81ab"></rect>
<rect x="3" y="9" width="1.02" height="1.02" fill="#7c81ab"></rect>
<rect x="4" y="9" width="1.02" height="1.02" fill="#7c81ab"></rect>
<rect x="5" y="9" width="1.02" height="1.02" fill="#7c81ab"></rect>
<rect x="6" y="9" width="1.02" height="1.02" fill="#a9adcf"></rect>
<rect x="7" y="9" width="1.02" height="1.02" fill="#7c81ab"></rect>
<rect x="8" y="9" width="1.02" height="1.02" fill="#7c81ab"></rect>
<rect x="9" y="9" width="1.02" height="1.02" fill="#7c81ab"></rect>
<rect x="10" y="9" width="1.02" height="1.02" fill="#7c81ab"></rect>
<rect x="11" y="9" width="1.02" height="1.02" fill="#5a5e86"></rect>
<rect x="0" y="10" width="1.02" height="1.02" fill="#5a5e86"></rect>
<rect x="1" y="10" width="1.02" height="1.02" fill="#7c81ab"></rect>
<rect x="2" y="10" width="1.02" height="1.02" fill="#7c81ab"></rect>
<rect x="3" y="10" width="1.02" height="1.02" fill="#7c81ab"></rect>
<rect x="4" y="10" width="1.02" height="1.02" fill="#7c81ab"></rect>
<rect x="5" y="10" width="1.02" height="1.02" fill="#7c81ab"></rect>
<rect x="6" y="10" width="1.02" height="1.02" fill="#a9adcf"></rect>
<rect x="7" y="10" width="1.02" height="1.02" fill="#7c81ab"></rect>
<rect x="8" y="10" width="1.02" height="1.02" fill="#7c81ab"></rect>
<rect x="9" y="10" width="1.02" height="1.02" fill="#7c81ab"></rect>
<rect x="10" y="10" width="1.02" height="1.02" fill="#7c81ab"></rect>
<rect x="11" y="10" width="1.02" height="1.02" fill="#7c81ab"></rect>
<rect x="12" y="10" width="1.02" height="1.02" fill="#5a5e86"></rect>
<rect x="0" y="11" width="1.02" height="1.02" fill="#5a5e86"></rect>
<rect x="1" y="11" width="1.02" height="1.02" fill="#7c81ab"></rect>
<rect x="2" y="11" width="1.02" height="1.02" fill="#7c81ab"></rect>
<rect x="3" y="11" width="1.02" height="1.02" fill="#7c81ab"></rect>
<rect x="4" y="11" width="1.02" height="1.02" fill="#7c81ab"></rect>
<rect x="8" y="11" width="1.02" height="1.02" fill="#7c81ab"></rect>
<rect x="9" y="11" width="1.02" height="1.02" fill="#7c81ab"></rect>
<rect x="10" y="11" width="1.02" height="1.02" fill="#7c81ab"></rect>
<rect x="11" y="11" width="1.02" height="1.02" fill="#7c81ab"></rect>
<rect x="12" y="11" width="1.02" height="1.02" fill="#5a5e86"></rect>
<rect x="3" y="12" width="1.02" height="1.02" fill="#7c81ab"></rect>
<rect x="4" y="12" width="1.02" height="1.02" fill="#7c81ab"></rect>
<rect x="8" y="12" width="1.02" height="1.02" fill="#7c81ab"></rect>
<rect x="9" y="12" width="1.02" height="1.02" fill="#7c81ab"></rect>
</g></svg>